<svg width="32" height="32" viewBox="0 0 32 32" fill="none" xmlns="http://www.w3.org/2000/svg">
<g clip-path="url(#clip0_25_1300)">
<path d="M2.94246 0.117432H29.0561C30.6106 0.117432 31.8827 1.38955 31.8827 2.94356V29.0577C31.8827 30.6122 30.6106 31.8838 29.0561 31.8838H2.94246C1.38797 31.8838 0.116333 30.6122 0.116333 29.0577V2.94356C0.116333 1.38955 1.38797 0.117432 2.94246 0.117432Z" fill="white" stroke="black" stroke-width="0.6"/>
<path fill-rule="evenodd" clip-rule="evenodd" d="M2.94247 0.823364H29.0561C30.2228 0.823364 31.1773 1.77783 31.1773 2.94357V29.0577C31.1773 30.2244 30.2228 31.1784 29.0561 31.1784H2.94247C1.77673 31.1784 0.822754 30.2244 0.822754 29.0577V2.94357C0.822754 1.77783 1.77673 0.823364 2.94247 0.823364Z" fill="#479F69"/>
<path fill-rule="evenodd" clip-rule="evenodd" d="M12.7206 7.897C13.8604 7.79161 14.7457 6.80969 14.7457 5.66159C14.7457 4.42574 13.7378 3.41785 12.5025 3.41785C11.2666 3.41785 10.2582 4.42574 10.2582 5.66159C10.2582 6.03857 10.3636 6.42438 10.5386 6.7489L11.3382 17.999L19.5734 18.002L22.9506 25.9156L27.3841 24.1763L26.6978 22.5414L24.2163 23.4366L20.9485 15.8925L13.2912 15.9435L13.1873 14.5189L18.7298 14.5209V12.4129L12.9755 12.4105L12.7206 7.897V7.897Z" fill="white"/>
<path fill-rule="evenodd" clip-rule="evenodd" d="M21.0029 24.0322C19.6136 26.7794 16.7037 28.5898 13.6015 28.5898C9.04395 28.5898 5.32611 24.8724 5.32611 20.3148C5.32611 17.1151 7.26592 14.1415 10.1597 12.8228L10.3475 15.267C8.63511 16.3455 7.58015 18.2917 7.58015 20.332C7.58015 23.6375 10.2774 26.3342 13.5834 26.3342C16.6081 26.3342 19.1866 24.013 19.5391 21.0349L21.0029 24.0322Z" fill="white"/>
</g>
<defs>
<clipPath id="clip0_25_1300">
<rect width="32" height="32" fill="white"/>
</clipPath>
</defs>
</svg>
