<svg width="32" height="32" viewBox="0 0 32 32" fill="none" xmlns="http://www.w3.org/2000/svg">
<rect width="32" height="32" rx="4" fill="#479F69"/>
<path d="M28.6088 10.6312C28.3866 10.5439 28.15 10.4993 27.9113 10.5H27.8863C26.6256 10.5187 25.2119 11.6994 24.47 13.485C23.5806 15.6212 23.99 17.8069 25.3913 18.3687C25.6132 18.4561 25.8496 18.5007 26.0881 18.5C27.355 18.5 28.7881 17.3125 29.5363 15.515C30.4194 13.3787 30.0038 11.1931 28.6088 10.6312ZM20.475 18.9675C18.7375 16.0844 17.9875 15 16 15C14.0125 15 13.2563 16.0912 11.5188 18.9675C10.0313 21.4275 7.02501 21.6325 6.27501 23.7219C6.12285 24.1046 6.04644 24.5132 6.05001 24.925C6.05001 26.6244 7.35001 28 8.95001 28C10.9375 28 13.6438 26.4131 16.0063 26.4131C18.3688 26.4131 21.0625 28 23.05 28C24.65 28 25.9438 26.625 25.9438 24.925C25.9452 24.5128 25.8667 24.1042 25.7125 23.7219C24.9625 21.625 21.9625 21.4275 20.475 18.9675ZM12.0319 12.25C12.1156 12.2501 12.1991 12.2438 12.2819 12.2312C13.7325 12.0206 14.6381 10.0106 14.3094 7.74062C14 5.60062 12.7013 4 11.3431 4C11.2594 3.99993 11.1759 4.0062 11.0931 4.01875C9.64251 4.22938 8.73688 6.23937 9.06563 8.50937C9.37501 10.6431 10.6738 12.25 12.0319 12.25ZM22.9325 8.50937C23.2613 6.23937 22.3556 4.22938 20.905 4.01875C20.8223 4.0062 20.7387 3.99993 20.655 4C19.2969 4 18.0006 5.60062 17.6906 7.74062C17.3619 10.0106 18.2675 12.0206 19.7181 12.2312C19.8009 12.2438 19.8844 12.2501 19.9681 12.25C21.3263 12.25 22.625 10.6431 22.9325 8.50937ZM6.61063 18.3687C8.01001 17.8062 8.41876 15.6187 7.53063 13.485C6.78313 11.6875 5.35126 10.5 4.08626 10.5C3.84776 10.4993 3.6113 10.5439 3.38938 10.6312C1.99001 11.1937 1.58126 13.3812 2.46938 15.515C3.21688 17.3125 4.64876 18.5 5.91376 18.5C6.15225 18.5007 6.38871 18.4561 6.61063 18.3687Z" fill="white" stroke="white" stroke-miterlimit="10"/>
</svg>
