<svg width="32" height="32" viewBox="0 0 32 32" fill="none" xmlns="http://www.w3.org/2000/svg">
<g clip-path="url(#clip0_26_1314)">
<path d="M3.49156 0.055542H28.7123C30.3591 0.055542 31.6849 1.3985 31.6849 3.06665V28.6143C31.6849 30.2825 30.3591 31.6254 28.7123 31.6254H3.49156C1.84475 31.6254 0.518982 30.2825 0.518982 28.6143V3.06665C0.518982 1.3985 1.84475 0.055542 3.49156 0.055542Z" fill="#479F69" stroke="white"/>
<path d="M5.80558 12.7582C5.80566 12.8534 5.78684 12.9477 5.75019 13.0358C5.71355 13.1238 5.6598 13.2038 5.59202 13.2712C5.52425 13.3385 5.44377 13.392 5.35518 13.4285C5.2666 13.4649 5.17165 13.4837 5.07576 13.4837C4.97988 13.4837 4.88493 13.4649 4.79634 13.4285C4.70776 13.392 4.62728 13.3385 4.5595 13.2712C4.49173 13.2038 4.43798 13.1238 4.40134 13.0358C4.36469 12.9477 4.34587 12.8534 4.34595 12.7582C4.34587 12.6629 4.36469 12.5686 4.40134 12.4805C4.43798 12.3925 4.49173 12.3125 4.5595 12.2451C4.62728 12.1778 4.70776 12.1243 4.79634 12.0878C4.88493 12.0514 4.97988 12.0326 5.07576 12.0326C5.17165 12.0326 5.2666 12.0514 5.35518 12.0878C5.44377 12.1243 5.52425 12.1778 5.59202 12.2451C5.6598 12.3125 5.71355 12.3925 5.75019 12.4805C5.78684 12.5686 5.80566 12.6629 5.80558 12.7582Z" fill="white" stroke="white" stroke-linejoin="round"/>
<path d="M24.764 6.11208C24.7641 6.20383 24.746 6.29469 24.7107 6.37948C24.6754 6.46427 24.6236 6.54131 24.5583 6.60622C24.493 6.67112 24.4155 6.72261 24.3302 6.75773C24.2449 6.79286 24.1534 6.81094 24.0611 6.81094C23.9687 6.81094 23.8772 6.79286 23.7919 6.75773C23.7066 6.72261 23.6291 6.67112 23.5638 6.60622C23.4985 6.54131 23.4467 6.46427 23.4114 6.37948C23.3762 6.29469 23.358 6.20383 23.3581 6.11208C23.358 6.02032 23.3762 5.92946 23.4114 5.84467C23.4467 5.75988 23.4985 5.68284 23.5638 5.61793C23.6291 5.55303 23.7066 5.50154 23.7919 5.46642C23.8772 5.43129 23.9687 5.41321 24.0611 5.41321C24.1534 5.41321 24.2449 5.43129 24.3302 5.46642C24.4155 5.50154 24.493 5.55303 24.5583 5.61793C24.6236 5.68284 24.6754 5.75988 24.7107 5.84467C24.746 5.92946 24.7641 6.02032 24.764 6.11208Z" fill="white" stroke="white" stroke-linejoin="round"/>
<path d="M16.0923 23.254C16.1181 19.8412 16.1258 19.7038 16.3066 19.4618C16.6428 19.0117 16.9609 18.8357 17.438 18.8357C17.9151 18.8357 18.2332 19.0117 18.5694 19.4618C18.7502 19.7038 18.758 19.8412 18.7837 23.254L18.8105 26.795H17.438H16.0655L16.0923 23.254ZM7.35552 24.9211C6.93537 24.6268 6.94089 24.4496 7.4304 22.5171C7.68142 21.5262 7.8868 20.6966 7.8868 20.6736C7.8868 20.6506 7.55294 20.5798 7.14488 20.5163C6.46134 20.41 6.39367 20.4136 6.28498 20.5622C6.17448 20.7134 6.09115 20.6931 4.96969 20.2431C3.88219 19.8067 3.76083 19.735 3.64646 19.4613C3.5514 19.2338 3.52062 18.6408 3.52088 17.0421C3.5212 15.0783 3.53457 14.9023 3.7048 14.6231C3.92999 14.2538 4.4297 14.0259 4.82619 14.1117C5.1004 14.1711 9.77138 17.2474 9.90936 17.4595C10.055 17.6833 9.98076 18.2357 9.77989 18.4228C9.40847 18.7688 9.10428 18.6729 7.88094 17.8237C7.25928 17.3921 6.70951 17.0236 6.65924 17.0048C6.60896 16.9859 6.43822 17.3416 6.2798 17.7951C6.08281 18.3592 6.02531 18.6304 6.09787 18.6533C6.15623 18.6716 6.81798 18.8143 7.56843 18.9703C9.12337 19.2935 9.40499 19.3862 9.52763 19.6154C9.67473 19.8902 9.63412 20.1433 9.07438 22.4393C8.60561 24.3621 8.50202 24.6846 8.29611 24.8621C8.01737 25.1022 7.6473 25.1255 7.35552 24.9211ZM10.7976 19.6649V19.1751L16.824 16.668C20.1385 15.2892 22.9242 14.1331 23.0144 14.0989C23.1627 14.0428 23.1759 14.0882 23.1509 14.5704L23.1233 15.1039L17.0287 17.6289C13.6767 19.0176 10.9034 20.154 10.8659 20.1543C10.8283 20.1544 10.7976 19.9343 10.7976 19.6649ZM26.2391 15.5012C25.3259 14.7429 24.5275 14.0597 24.465 13.9829C24.4024 13.9062 24.3513 13.7072 24.3513 13.5407C24.3513 13.2803 24.4911 13.0901 25.3519 12.179C25.9022 11.5966 26.3525 11.0931 26.3525 11.0602C26.3525 10.9888 25.1643 10.1237 25.1235 10.1653C25.108 10.1812 24.885 10.7263 24.6279 11.3766C24.3709 12.027 24.0762 12.6308 23.973 12.7184C23.5694 13.0607 22.8959 12.7546 22.8959 12.2289C22.8959 12.1037 23.2379 11.083 23.6559 9.96063C24.0739 8.83829 24.4655 7.76785 24.5261 7.58188C24.6848 7.09491 25.0925 6.78219 25.5635 6.78619C25.7723 6.78796 26.0299 6.83913 26.136 6.89989C26.3588 7.02754 28.5031 9.86926 28.6316 10.2072C28.6788 10.3316 28.7175 11.1241 28.7175 11.9682V13.5031L27.807 13.1279L26.8964 12.7527L26.5789 13.0604C26.4044 13.2296 26.2615 13.3945 26.2615 13.4268C26.2615 13.4591 26.8309 13.985 27.5268 14.5954C28.2227 15.2059 28.8163 15.7683 28.8458 15.8453C29.042 16.3567 28.7098 16.88 28.189 16.88C27.9495 16.88 27.6131 16.6421 26.2391 15.5012ZM23.8068 6.48663C23.6474 6.38651 23.5744 6.47569 23.5212 6.37624C23.3851 6.12194 23.5019 6.0881 23.6541 5.79378C24.0037 5.11774 24.6022 4.85124 24.9526 5.52899C25.1032 5.82014 25.3023 5.87428 25.2154 5.60043C25.1722 5.46426 25.1993 5.41819 25.323 5.41726C25.4139 5.41657 25.5804 5.39134 25.693 5.36117C25.8608 5.3162 25.8977 5.34314 25.8977 5.51076C25.8977 5.6929 25.9318 5.70966 26.2104 5.66445C26.635 5.59554 26.8531 5.82583 26.4929 5.96278C26.3591 6.01364 26.169 6.05525 26.0705 6.05525C25.9194 6.05525 25.9066 6.08387 25.9886 6.23718C26.0646 6.37913 26.0578 6.41911 25.9577 6.41911C25.8872 6.41911 25.7042 6.44416 25.551 6.47479C25.3012 6.52475 25.2778 6.51071 25.3229 6.33834C25.4028 6.03245 25.1861 6.11387 25.0473 6.44185C24.8671 6.86749 24.579 6.36483 24.1335 6.41016C23.8489 6.43912 24.0182 6.61938 23.8068 6.48663Z" fill="white"/>
</g>
<defs>
<clipPath id="clip0_26_1314">
<rect width="32" height="32" fill="white"/>
</clipPath>
</defs>
</svg>
